<svg xmlns="http://www.w3.org/2000/svg" viewBox="0 0 160 160" role="img" aria-label="BRILink"><rect width="160" height="160" rx="32" fill="#eef7ff"/><path fill="#0878be" d="M27 28h62c25 0 40 12 40 31 0 11-6 20-16 25 14 5 21 15 21 29 0 22-17 34-45 34H27zm27 23v23h31c11 0 17-4 17-12s-6-11-17-11zm0 45v27h34c12 0 19-5 19-14 0-8-7-13-19-13z"/><path fill="#f7941d" d="m111 20 30 17-30 17z"/><path fill="#0878be" d="M29 134h102v10H29z"/><text x="80" y="158" fill="#0878be" font-family="Arial,sans-serif" font-size="13" font-weight="700" text-anchor="middle">BRILink</text></svg>
