<svg xmlns="http://www.w3.org/2000/svg" viewBox="0 0 64 64" role="img" aria-labelledby="title">
  <title id="title">Maxim</title>
  <rect width="64" height="64" rx="15" fill="#ffdf00"/>
  <path fill="#171717" d="M10 24h5v2.1c1.2-1.7 3-2.7 5.1-2.7 2.4 0 4.2 1 5.2 3 1.4-2 3.4-3 5.9-3 4.2 0 6.4 2.7 6.4 7.3V41h-5.4v-9.4c0-2.3-.9-3.5-2.7-3.5-1.9 0-3 1.4-3 4V41h-5.4v-9.4c0-2.3-.9-3.5-2.7-3.5-2 0-3 1.4-3 4V41H10V24Zm30 0h5.5v17H40V24Zm8.3 0h6l-4.4 8.2L55 41h-6.1l-2.1-4.5-2.1 4.5h-6l5.2-8.8-4.5-8.2h6.1l1.5 3.8 1.3-3.8Z"/>
</svg>
